<svg xmlns="http://www.w3.org/2000/svg" viewBox="0 0 1920 1080"><g transform="
          rotate(0 960 540) 
          translate(-0 -0)
          scale(1)
        "><rect width="1920" height="1080" fill="rgb(227, 239, 255)"></rect><g transform="translate(0, 0)"><path fill="rgb(222, 236, 255)" fill-opacity="1" d="M0,88.236L17.778,87.519C35.556,86.802,71.111,85.368,106.667,85.145C142.222,84.923,177.778,85.912,213.333,86.024C248.889,86.135,284.444,85.368,320,75.796C355.556,66.223,391.111,47.846,426.667,46.294C462.222,44.742,497.778,60.015,533.333,55.334C568.889,50.653,604.444,26.017,640,24.62C675.556,23.223,711.111,45.064,746.667,50.505C782.222,55.945,817.778,44.984,853.333,34.839C888.889,24.694,924.444,15.364,960,20.18C995.556,24.996,1031.111,43.957,1066.667,47.376C1102.222,50.795,1137.778,38.672,1173.333,32.604C1208.889,26.535,1244.444,26.523,1280,35.319C1315.556,44.115,1351.111,61.719,1386.667,71.174C1422.222,80.629,1457.778,81.935,1493.333,71.169C1528.889,60.403,1564.444,37.566,1600,28.156C1635.556,18.746,1671.111,22.763,1706.667,31.568C1742.222,40.373,1777.778,53.966,1813.333,63.582C1848.889,73.199,1884.444,78.838,1902.222,81.657L1920,84.476L1920,1080L1902.222,1080C1884.444,1080,1848.889,1080,1813.333,1080C1777.778,1080,1742.222,1080,1706.667,1080C1671.111,1080,1635.556,1080,1600,1080C1564.444,1080,1528.889,1080,1493.333,1080C1457.778,1080,1422.222,1080,1386.667,1080C1351.111,1080,1315.556,1080,1280,1080C1244.444,1080,1208.889,1080,1173.333,1080C1137.778,1080,1102.222,1080,1066.667,1080C1031.111,1080,995.556,1080,960,1080C924.444,1080,888.889,1080,853.333,1080C817.778,1080,782.222,1080,746.667,1080C711.111,1080,675.556,1080,640,1080C604.444,1080,568.889,1080,533.333,1080C497.778,1080,462.222,1080,426.667,1080C391.111,1080,355.556,1080,320,1080C284.444,1080,248.889,1080,213.333,1080C177.778,1080,142.222,1080,106.667,1080C71.111,1080,35.556,1080,17.778,1080L0,1080Z"></path></g><g transform="translate(0, 90)"><path fill="rgb(217, 233, 255)" fill-opacity="1" d="M0,45.306L17.778,38.55C35.556,31.793,71.111,18.281,106.667,10.841C142.222,3.402,177.778,2.035,213.333,10.27C248.889,18.504,284.444,36.339,320,41.946C355.556,47.552,391.111,40.928,426.667,34.044C462.222,27.16,497.778,20.016,533.333,18.064C568.889,16.112,604.444,19.353,640,21.652C675.556,23.951,711.111,25.308,746.667,33.264C782.222,41.22,817.778,55.775,853.333,65.688C888.889,75.6,924.444,80.869,960,84.03C995.556,87.19,1031.111,88.242,1066.667,82.156C1102.222,76.07,1137.778,62.845,1173.333,52.324C1208.889,41.802,1244.444,33.983,1280,27.159C1315.556,20.335,1351.111,14.506,1386.667,23.118C1422.222,31.731,1457.778,54.786,1493.333,68.042C1528.889,81.297,1564.444,84.753,1600,86.604C1635.556,88.454,1671.111,88.699,1706.667,83.57C1742.222,78.441,1777.778,67.938,1813.333,61.379C1848.889,54.82,1884.444,52.206,1902.222,50.899L1920,49.592L1920,990L1902.222,990C1884.444,990,1848.889,990,1813.333,990C1777.778,990,1742.222,990,1706.667,990C1671.111,990,1635.556,990,1600,990C1564.444,990,1528.889,990,1493.333,990C1457.778,990,1422.222,990,1386.667,990C1351.111,990,1315.556,990,1280,990C1244.444,990,1208.889,990,1173.333,990C1137.778,990,1102.222,990,1066.667,990C1031.111,990,995.556,990,960,990C924.444,990,888.889,990,853.333,990C817.778,990,782.222,990,746.667,990C711.111,990,675.556,990,640,990C604.444,990,568.889,990,533.333,990C497.778,990,462.222,990,426.667,990C391.111,990,355.556,990,320,990C284.444,990,248.889,990,213.333,990C177.778,990,142.222,990,106.667,990C71.111,990,35.556,990,17.778,990L0,990Z"></path></g><g transform="translate(0, 180)"><path fill="rgb(212, 230, 255)" fill-opacity="1" d="M0,25.385L17.778,35.793C35.556,46.201,71.111,67.016,106.667,75.697C142.222,84.377,177.778,80.923,213.333,79.941C248.889,78.959,284.444,80.449,320,78.72C355.556,76.991,391.111,72.042,426.667,59.697C462.222,47.352,497.778,27.61,533.333,29.975C568.889,32.339,604.444,56.808,640,62.368C675.556,67.927,711.111,54.577,746.667,43.224C782.222,31.872,817.778,22.517,853.333,22.324C888.889,22.132,924.444,31.1,960,43.598C995.556,56.096,1031.111,72.124,1066.667,73.085C1102.222,74.046,1137.778,59.941,1173.333,51.63C1208.889,43.318,1244.444,40.8,1280,34.108C1315.556,27.415,1351.111,16.548,1386.667,10.986C1422.222,5.424,1457.778,5.167,1493.333,10.059C1528.889,14.952,1564.444,24.995,1600,38.606C1635.556,52.217,1671.111,69.396,1706.667,75.221C1742.222,81.046,1777.778,75.517,1813.333,63.138C1848.889,50.758,1884.444,31.527,1902.222,21.912L1920,12.297L1920,900L1902.222,900C1884.444,900,1848.889,900,1813.333,900C1777.778,900,1742.222,900,1706.667,900C1671.111,900,1635.556,900,1600,900C1564.444,900,1528.889,900,1493.333,900C1457.778,900,1422.222,900,1386.667,900C1351.111,900,1315.556,900,1280,900C1244.444,900,1208.889,900,1173.333,900C1137.778,900,1102.222,900,1066.667,900C1031.111,900,995.556,900,960,900C924.444,900,888.889,900,853.333,900C817.778,900,782.222,900,746.667,900C711.111,900,675.556,900,640,900C604.444,900,568.889,900,533.333,900C497.778,900,462.222,900,426.667,900C391.111,900,355.556,900,320,900C284.444,900,248.889,900,213.333,900C177.778,900,142.222,900,106.667,900C71.111,900,35.556,900,17.778,900L0,900Z"></path></g><g transform="translate(0, 270)"><path fill="rgb(207, 227, 255)" fill-opacity="1" d="M0,84.185L17.778,75.947C35.556,67.709,71.111,51.232,106.667,47.371C142.222,43.509,177.778,52.263,213.333,52.802C248.889,53.341,284.444,45.666,320,46.568C355.556,47.469,391.111,56.947,426.667,61.557C462.222,66.168,497.778,65.911,533.333,61.489C568.889,57.067,604.444,48.48,640,46.002C675.556,43.524,711.111,47.156,746.667,48.93C782.222,50.705,817.778,50.624,853.333,49.741C888.889,48.858,924.444,47.173,960,45.694C995.556,44.216,1031.111,42.943,1066.667,36.89C1102.222,30.836,1137.778,20.001,1173.333,13.531C1208.889,7.061,1244.444,4.956,1280,7.962C1315.556,10.968,1351.111,19.086,1386.667,24.189C1422.222,29.292,1457.778,31.38,1493.333,31.854C1528.889,32.327,1564.444,31.185,1600,33.853C1635.556,36.521,1671.111,42.998,1706.667,47.666C1742.222,52.334,1777.778,55.191,1813.333,59.665C1848.889,64.139,1884.444,70.229,1902.222,73.274L1920,76.319L1920,810L1902.222,810C1884.444,810,1848.889,810,1813.333,810C1777.778,810,1742.222,810,1706.667,810C1671.111,810,1635.556,810,1600,810C1564.444,810,1528.889,810,1493.333,810C1457.778,810,1422.222,810,1386.667,810C1351.111,810,1315.556,810,1280,810C1244.444,810,1208.889,810,1173.333,810C1137.778,810,1102.222,810,1066.667,810C1031.111,810,995.556,810,960,810C924.444,810,888.889,810,853.333,810C817.778,810,782.222,810,746.667,810C711.111,810,675.556,810,640,810C604.444,810,568.889,810,533.333,810C497.778,810,462.222,810,426.667,810C391.111,810,355.556,810,320,810C284.444,810,248.889,810,213.333,810C177.778,810,142.222,810,106.667,810C71.111,810,35.556,810,17.778,810L0,810Z"></path></g><g transform="translate(0, 360)"><path fill="rgb(202, 224, 255)" fill-opacity="1" d="M0,51.809L17.778,47.446C35.556,43.083,71.111,34.357,106.667,34.575C142.222,34.792,177.778,43.954,213.333,42.498C248.889,41.043,284.444,28.972,320,32.248C355.556,35.524,391.111,54.148,426.667,57.804C462.222,61.459,497.778,50.147,533.333,52.667C568.889,55.187,604.444,71.54,640,78.433C675.556,85.325,711.111,82.756,746.667,75.545C782.222,68.334,817.778,56.481,853.333,55.754C888.889,55.026,924.444,65.425,960,64.571C995.556,63.717,1031.111,51.609,1066.667,46.631C1102.222,41.652,1137.778,43.803,1173.333,39.093C1208.889,34.384,1244.444,22.815,1280,24.697C1315.556,26.579,1351.111,41.913,1386.667,40.059C1422.222,38.204,1457.778,19.162,1493.333,16.242C1528.889,13.322,1564.444,26.523,1600,38.731C1635.556,50.938,1671.111,62.152,1706.667,55.703C1742.222,49.254,1777.778,25.142,1813.333,23.803C1848.889,22.464,1884.444,43.899,1902.222,54.616L1920,65.333L1920,720L1902.222,720C1884.444,720,1848.889,720,1813.333,720C1777.778,720,1742.222,720,1706.667,720C1671.111,720,1635.556,720,1600,720C1564.444,720,1528.889,720,1493.333,720C1457.778,720,1422.222,720,1386.667,720C1351.111,720,1315.556,720,1280,720C1244.444,720,1208.889,720,1173.333,720C1137.778,720,1102.222,720,1066.667,720C1031.111,720,995.556,720,960,720C924.444,720,888.889,720,853.333,720C817.778,720,782.222,720,746.667,720C711.111,720,675.556,720,640,720C604.444,720,568.889,720,533.333,720C497.778,720,462.222,720,426.667,720C391.111,720,355.556,720,320,720C284.444,720,248.889,720,213.333,720C177.778,720,142.222,720,106.667,720C71.111,720,35.556,720,17.778,720L0,720Z"></path></g><g transform="translate(0, 450)"><path fill="rgb(198, 222, 255)" fill-opacity="1" d="M0,21.355L17.778,24.866C35.556,28.377,71.111,35.399,106.667,37.486C142.222,39.572,177.778,36.722,213.333,42.123C248.889,47.523,284.444,61.173,320,56.722C355.556,52.272,391.111,29.72,426.667,28.33C462.222,26.939,497.778,46.71,533.333,53.171C568.889,59.632,604.444,52.784,640,55.251C675.556,57.719,711.111,69.502,746.667,69.665C782.222,69.829,817.778,58.372,853.333,45.485C888.889,32.598,924.444,18.28,960,17.163C995.556,16.045,1031.111,28.128,1066.667,40.598C1102.222,53.068,1137.778,65.926,1173.333,62.288C1208.889,58.65,1244.444,38.516,1280,28.791C1315.556,19.066,1351.111,19.75,1386.667,27.902C1422.222,36.053,1457.778,51.672,1493.333,61.998C1528.889,72.324,1564.444,77.356,1600,73.508C1635.556,69.659,1671.111,56.929,1706.667,55.984C1742.222,55.038,1777.778,65.877,1813.333,65.567C1848.889,65.256,1884.444,53.797,1902.222,48.067L1920,42.337L1920,630L1902.222,630C1884.444,630,1848.889,630,1813.333,630C1777.778,630,1742.222,630,1706.667,630C1671.111,630,1635.556,630,1600,630C1564.444,630,1528.889,630,1493.333,630C1457.778,630,1422.222,630,1386.667,630C1351.111,630,1315.556,630,1280,630C1244.444,630,1208.889,630,1173.333,630C1137.778,630,1102.222,630,1066.667,630C1031.111,630,995.556,630,960,630C924.444,630,888.889,630,853.333,630C817.778,630,782.222,630,746.667,630C711.111,630,675.556,630,640,630C604.444,630,568.889,630,533.333,630C497.778,630,462.222,630,426.667,630C391.111,630,355.556,630,320,630C284.444,630,248.889,630,213.333,630C177.778,630,142.222,630,106.667,630C71.111,630,35.556,630,17.778,630L0,630Z"></path></g><g transform="translate(0, 540)"><path fill="rgb(193, 219, 255)" fill-opacity="1" d="M0,71.597L17.778,69.057C35.556,66.517,71.111,61.436,106.667,54.436C142.222,47.435,177.778,38.515,213.333,33.371C248.889,28.226,284.444,26.857,320,22.636C355.556,18.415,391.111,11.341,426.667,19.936C462.222,28.532,497.778,52.796,533.333,66.334C568.889,79.872,604.444,82.685,640,72.291C675.556,61.897,711.111,38.295,746.667,26.3C782.222,14.305,817.778,13.916,853.333,12.911C888.889,11.906,924.444,10.285,960,12.608C995.556,14.93,1031.111,21.195,1066.667,24.982C1102.222,28.769,1137.778,30.076,1173.333,28.867C1208.889,27.657,1244.444,23.93,1280,21.774C1315.556,19.618,1351.111,19.032,1386.667,22.826C1422.222,26.621,1457.778,34.796,1493.333,41.591C1528.889,48.387,1564.444,53.804,1600,61.504C1635.556,69.204,1671.111,79.188,1706.667,71.721C1742.222,64.254,1777.778,39.338,1813.333,26.966C1848.889,14.593,1884.444,14.766,1902.222,14.852L1920,14.938L1920,540L1902.222,540C1884.444,540,1848.889,540,1813.333,540C1777.778,540,1742.222,540,1706.667,540C1671.111,540,1635.556,540,1600,540C1564.444,540,1528.889,540,1493.333,540C1457.778,540,1422.222,540,1386.667,540C1351.111,540,1315.556,540,1280,540C1244.444,540,1208.889,540,1173.333,540C1137.778,540,1102.222,540,1066.667,540C1031.111,540,995.556,540,960,540C924.444,540,888.889,540,853.333,540C817.778,540,782.222,540,746.667,540C711.111,540,675.556,540,640,540C604.444,540,568.889,540,533.333,540C497.778,540,462.222,540,426.667,540C391.111,540,355.556,540,320,540C284.444,540,248.889,540,213.333,540C177.778,540,142.222,540,106.667,540C71.111,540,35.556,540,17.778,540L0,540Z"></path></g><g transform="translate(0, 630)"><path fill="rgb(188, 216, 255)" fill-opacity="1" d="M0,17.089L17.778,26.39C35.556,35.69,71.111,54.291,106.667,59.86C142.222,65.429,177.778,57.966,213.333,54.465C248.889,50.965,284.444,51.427,320,47.725C355.556,44.022,391.111,36.155,426.667,41.854C462.222,47.553,497.778,66.817,533.333,62.137C568.889,57.458,604.444,28.834,640,20.042C675.556,11.25,711.111,22.29,746.667,23.242C782.222,24.193,817.778,15.057,853.333,19.418C888.889,23.78,924.444,41.639,960,47.613C995.556,53.587,1031.111,47.675,1066.667,39.081C1102.222,30.488,1137.778,19.212,1173.333,20.007C1208.889,20.803,1244.444,33.669,1280,38.902C1315.556,44.135,1351.111,41.735,1386.667,46.086C1422.222,50.437,1457.778,61.539,1493.333,60.046C1528.889,58.553,1564.444,44.465,1600,38.647C1635.556,32.83,1671.111,35.283,1706.667,42.661C1742.222,50.039,1777.778,62.342,1813.333,58.207C1848.889,54.072,1884.444,33.5,1902.222,23.214L1920,12.928L1920,450L1902.222,450C1884.444,450,1848.889,450,1813.333,450C1777.778,450,1742.222,450,1706.667,450C1671.111,450,1635.556,450,1600,450C1564.444,450,1528.889,450,1493.333,450C1457.778,450,1422.222,450,1386.667,450C1351.111,450,1315.556,450,1280,450C1244.444,450,1208.889,450,1173.333,450C1137.778,450,1102.222,450,1066.667,450C1031.111,450,995.556,450,960,450C924.444,450,888.889,450,853.333,450C817.778,450,782.222,450,746.667,450C711.111,450,675.556,450,640,450C604.444,450,568.889,450,533.333,450C497.778,450,462.222,450,426.667,450C391.111,450,355.556,450,320,450C284.444,450,248.889,450,213.333,450C177.778,450,142.222,450,106.667,450C71.111,450,35.556,450,17.778,450L0,450Z"></path></g><g transform="translate(0, 720)"><path fill="rgb(183, 213, 255)" fill-opacity="1" d="M0,31.312L17.778,36.391C35.556,41.469,71.111,51.626,106.667,59.776C142.222,67.925,177.778,74.067,213.333,76.745C248.889,79.424,284.444,78.64,320,65.546C355.556,52.452,391.111,27.048,426.667,18.914C462.222,10.781,497.778,19.919,533.333,25.689C568.889,31.459,604.444,33.861,640,35.396C675.556,36.931,711.111,37.598,746.667,45.132C782.222,52.665,817.778,67.065,853.333,66.748C888.889,66.432,924.444,51.398,960,48.481C995.556,45.564,1031.111,54.765,1066.667,55.607C1102.222,56.449,1137.778,48.933,1173.333,41.049C1208.889,33.166,1244.444,24.915,1280,29.89C1315.556,34.866,1351.111,53.069,1386.667,61.819C1422.222,70.569,1457.778,69.866,1493.333,62.814C1528.889,55.762,1564.444,42.361,1600,38.305C1635.556,34.249,1671.111,39.538,1706.667,38.167C1742.222,36.796,1777.778,28.767,1813.333,34.644C1848.889,40.52,1884.444,60.304,1902.222,70.196L1920,80.088L1920,360L1902.222,360C1884.444,360,1848.889,360,1813.333,360C1777.778,360,1742.222,360,1706.667,360C1671.111,360,1635.556,360,1600,360C1564.444,360,1528.889,360,1493.333,360C1457.778,360,1422.222,360,1386.667,360C1351.111,360,1315.556,360,1280,360C1244.444,360,1208.889,360,1173.333,360C1137.778,360,1102.222,360,1066.667,360C1031.111,360,995.556,360,960,360C924.444,360,888.889,360,853.333,360C817.778,360,782.222,360,746.667,360C711.111,360,675.556,360,640,360C604.444,360,568.889,360,533.333,360C497.778,360,462.222,360,426.667,360C391.111,360,355.556,360,320,360C284.444,360,248.889,360,213.333,360C177.778,360,142.222,360,106.667,360C71.111,360,35.556,360,17.778,360L0,360Z"></path></g><g transform="translate(0, 810)"><path fill="rgb(178, 210, 255)" fill-opacity="1" d="M0,76.851L17.778,71.008C35.556,65.165,71.111,53.479,106.667,53.651C142.222,53.822,177.778,65.852,213.333,68.38C248.889,70.908,284.444,63.934,320,55.902C355.556,47.869,391.111,38.777,426.667,43.623C462.222,48.468,497.778,67.25,533.333,68.567C568.889,69.884,604.444,53.736,640,48.071C675.556,42.406,711.111,47.225,746.667,45.503C782.222,43.782,817.778,35.52,853.333,41.454C888.889,47.387,924.444,67.516,960,74.627C995.556,81.739,1031.111,75.833,1066.667,66.5C1102.222,57.166,1137.778,44.406,1173.333,39.234C1208.889,34.063,1244.444,36.481,1280,38.517C1315.556,40.554,1351.111,42.209,1386.667,44.81C1422.222,47.411,1457.778,50.959,1493.333,51.178C1528.889,51.396,1564.444,48.284,1600,45.302C1635.556,42.319,1671.111,39.465,1706.667,43.402C1742.222,47.338,1777.778,58.065,1813.333,60.875C1848.889,63.684,1884.444,58.576,1902.222,56.021L1920,53.467L1920,270L1902.222,270C1884.444,270,1848.889,270,1813.333,270C1777.778,270,1742.222,270,1706.667,270C1671.111,270,1635.556,270,1600,270C1564.444,270,1528.889,270,1493.333,270C1457.778,270,1422.222,270,1386.667,270C1351.111,270,1315.556,270,1280,270C1244.444,270,1208.889,270,1173.333,270C1137.778,270,1102.222,270,1066.667,270C1031.111,270,995.556,270,960,270C924.444,270,888.889,270,853.333,270C817.778,270,782.222,270,746.667,270C711.111,270,675.556,270,640,270C604.444,270,568.889,270,533.333,270C497.778,270,462.222,270,426.667,270C391.111,270,355.556,270,320,270C284.444,270,248.889,270,213.333,270C177.778,270,142.222,270,106.667,270C71.111,270,35.556,270,17.778,270L0,270Z"></path></g><g transform="translate(0, 900)"><path fill="rgb(173, 207, 255)" fill-opacity="1" d="M0,15.258L17.778,17.882C35.556,20.507,71.111,25.756,106.667,29.111C142.222,32.465,177.778,33.926,213.333,36.376C248.889,38.826,284.444,42.264,320,41.061C355.556,39.859,391.111,34.015,426.667,31.233C462.222,28.451,497.778,28.73,533.333,29.662C568.889,30.594,604.444,32.179,640,32.204C675.556,32.229,711.111,30.694,746.667,34.718C782.222,38.742,817.778,48.325,853.333,46.193C888.889,44.062,924.444,30.214,960,25.257C995.556,20.299,1031.111,24.232,1066.667,30.746C1102.222,37.26,1137.778,46.356,1173.333,45.885C1208.889,45.414,1244.444,35.376,1280,30.688C1315.556,26,1351.111,26.662,1386.667,35.244C1422.222,43.826,1457.778,60.329,1493.333,60.95C1528.889,61.57,1564.444,46.308,1600,34.566C1635.556,22.823,1671.111,14.6,1706.667,16.257C1742.222,17.914,1777.778,29.452,1813.333,39.06C1848.889,48.669,1884.444,56.349,1902.222,60.189L1920,64.029L1920,180L1902.222,180C1884.444,180,1848.889,180,1813.333,180C1777.778,180,1742.222,180,1706.667,180C1671.111,180,1635.556,180,1600,180C1564.444,180,1528.889,180,1493.333,180C1457.778,180,1422.222,180,1386.667,180C1351.111,180,1315.556,180,1280,180C1244.444,180,1208.889,180,1173.333,180C1137.778,180,1102.222,180,1066.667,180C1031.111,180,995.556,180,960,180C924.444,180,888.889,180,853.333,180C817.778,180,782.222,180,746.667,180C711.111,180,675.556,180,640,180C604.444,180,568.889,180,533.333,180C497.778,180,462.222,180,426.667,180C391.111,180,355.556,180,320,180C284.444,180,248.889,180,213.333,180C177.778,180,142.222,180,106.667,180C71.111,180,35.556,180,17.778,180L0,180Z"></path></g><g transform="translate(0, 990)"><path fill="rgb(168, 204, 255)" fill-opacity="1" d="M0,88.13L17.778,75.228C35.556,62.326,71.111,36.521,106.667,36.151C142.222,35.782,177.778,60.847,213.333,66.867C248.889,72.886,284.444,59.861,320,47.894C355.556,35.927,391.111,25.019,426.667,18.291C462.222,11.563,497.778,9.015,533.333,12.036C568.889,15.056,604.444,23.644,640,36.597C675.556,49.55,711.111,66.867,746.667,61.496C782.222,56.125,817.778,28.066,853.333,16.719C888.889,5.373,924.444,10.74,960,22.952C995.556,35.164,1031.111,54.222,1066.667,64.972C1102.222,75.723,1137.778,78.165,1173.333,73.003C1208.889,67.84,1244.444,55.073,1280,46.902C1315.556,38.73,1351.111,35.155,1386.667,28.282C1422.222,21.409,1457.778,11.238,1493.333,14.129C1528.889,17.019,1564.444,32.971,1600,33.008C1635.556,33.045,1671.111,17.167,1706.667,23.734C1742.222,30.301,1777.778,59.313,1813.333,59.758C1848.889,60.203,1884.444,32.08,1902.222,18.019L1920,3.958L1920,90L1902.222,90C1884.444,90,1848.889,90,1813.333,90C1777.778,90,1742.222,90,1706.667,90C1671.111,90,1635.556,90,1600,90C1564.444,90,1528.889,90,1493.333,90C1457.778,90,1422.222,90,1386.667,90C1351.111,90,1315.556,90,1280,90C1244.444,90,1208.889,90,1173.333,90C1137.778,90,1102.222,90,1066.667,90C1031.111,90,995.556,90,960,90C924.444,90,888.889,90,853.333,90C817.778,90,782.222,90,746.667,90C711.111,90,675.556,90,640,90C604.444,90,568.889,90,533.333,90C497.778,90,462.222,90,426.667,90C391.111,90,355.556,90,320,90C284.444,90,248.889,90,213.333,90C177.778,90,142.222,90,106.667,90C71.111,90,35.556,90,17.778,90L0,90Z"></path></g></g></svg>